<mxfile host="app.diagrams.net" modified="2024-05-08T15:32:13.816Z" agent="Mozilla/5.0 (Windows NT 10.0; Win64; x64) AppleWebKit/537.36 (KHTML, like Gecko) Chrome/124.0.0.0 Safari/537.36" etag="QOK2OenL93rf6Zsuniv-" version="24.2.7" type="device">
  <diagram name="Page-1" id="YYKXZFIhTzTzz0jY8LBO">
    <mxGraphModel dx="2035" dy="1114" grid="0" gridSize="10" guides="1" tooltips="1" connect="1" arrows="1" fold="1" page="0" pageScale="1" pageWidth="827" pageHeight="1169" math="0" shadow="0">
      <root>
        <mxCell id="0" />
        <mxCell id="1" parent="0" />
        <mxCell id="lPlSVqDqnNSUKFsH-eJa-10" value="Povezuje vrste prijevoza&amp;nbsp;&lt;div&gt;(gradski, prigradski) s rasporedom vožnji&amp;nbsp;&lt;/div&gt;&lt;div&gt;za odgovarajuće linije i rute.&lt;br&gt;&lt;/div&gt;" style="edgeStyle=none;curved=1;rounded=0;orthogonalLoop=1;jettySize=auto;exitX=0.25;exitY=0;exitDx=0;exitDy=0;entryX=0.25;entryY=1;entryDx=0;entryDy=0;fontSize=17;startSize=8;endSize=8;html=1;align=center;labelBorderColor=none;textShadow=0;verticalAlign=middle;labelBackgroundColor=none;fontColor=default;" edge="1" parent="1" source="lPlSVqDqnNSUKFsH-eJa-4" target="lPlSVqDqnNSUKFsH-eJa-5">
          <mxGeometry x="0.0011" y="104" relative="1" as="geometry">
            <mxPoint as="offset" />
          </mxGeometry>
        </mxCell>
        <mxCell id="lPlSVqDqnNSUKFsH-eJa-13" style="edgeStyle=none;curved=1;rounded=0;orthogonalLoop=1;jettySize=auto;html=1;exitX=1;exitY=0.25;exitDx=0;exitDy=0;entryX=0;entryY=0.25;entryDx=0;entryDy=0;fontSize=12;startSize=8;endSize=8;labelBackgroundColor=none;fontColor=default;" edge="1" parent="1" source="lPlSVqDqnNSUKFsH-eJa-4" target="lPlSVqDqnNSUKFsH-eJa-8">
          <mxGeometry relative="1" as="geometry" />
        </mxCell>
        <mxCell id="lPlSVqDqnNSUKFsH-eJa-15" value="&lt;span style=&quot;font-size: 15px;&quot;&gt;Povezuje vrste prijevoza&amp;nbsp;&lt;/span&gt;&lt;div&gt;&lt;span style=&quot;font-size: 15px;&quot;&gt;(gradski, prigradski) s nadzorom i&amp;nbsp;&lt;/span&gt;&lt;/div&gt;&lt;div&gt;&lt;span style=&quot;font-size: 15px;&quot;&gt;praćenjem vozila u stvarnom vremenu.&quot;&lt;/span&gt;&lt;br&gt;&lt;/div&gt;" style="edgeLabel;html=1;align=center;verticalAlign=middle;resizable=0;points=[];fontSize=12;labelBackgroundColor=none;" vertex="1" connectable="0" parent="lPlSVqDqnNSUKFsH-eJa-13">
          <mxGeometry x="-0.0435" y="-1" relative="1" as="geometry">
            <mxPoint x="6" y="-36" as="offset" />
          </mxGeometry>
        </mxCell>
        <mxCell id="lPlSVqDqnNSUKFsH-eJa-17" style="edgeStyle=none;curved=1;rounded=0;orthogonalLoop=1;jettySize=auto;html=1;exitX=0.25;exitY=1;exitDx=0;exitDy=0;entryX=0.25;entryY=0;entryDx=0;entryDy=0;fontSize=12;startSize=8;endSize=8;labelBackgroundColor=none;fontColor=default;" edge="1" parent="1" source="lPlSVqDqnNSUKFsH-eJa-4" target="lPlSVqDqnNSUKFsH-eJa-9">
          <mxGeometry relative="1" as="geometry" />
        </mxCell>
        <mxCell id="lPlSVqDqnNSUKFsH-eJa-19" value="&lt;font style=&quot;font-size: 16px;&quot;&gt;Povezuje vrste prijevoza&amp;nbsp;&lt;/font&gt;&lt;div style=&quot;font-size: 16px;&quot;&gt;&lt;font style=&quot;font-size: 16px;&quot;&gt;(gradski, prigradski) s&amp;nbsp;&lt;/font&gt;&lt;/div&gt;&lt;div style=&quot;font-size: 16px;&quot;&gt;&lt;font style=&quot;font-size: 16px;&quot;&gt;putnicima koji ih koriste&lt;/font&gt;&lt;/div&gt;" style="edgeLabel;html=1;align=center;verticalAlign=middle;resizable=0;points=[];fontSize=12;labelBackgroundColor=none;" vertex="1" connectable="0" parent="lPlSVqDqnNSUKFsH-eJa-17">
          <mxGeometry x="-0.0976" y="-1" relative="1" as="geometry">
            <mxPoint x="-43" y="3" as="offset" />
          </mxGeometry>
        </mxCell>
        <mxCell id="lPlSVqDqnNSUKFsH-eJa-21" style="edgeStyle=none;curved=1;rounded=0;orthogonalLoop=1;jettySize=auto;html=1;exitX=0;exitY=0.25;exitDx=0;exitDy=0;entryX=1;entryY=0.25;entryDx=0;entryDy=0;fontSize=12;startSize=8;endSize=8;labelBackgroundColor=none;fontColor=default;" edge="1" parent="1" source="lPlSVqDqnNSUKFsH-eJa-4" target="lPlSVqDqnNSUKFsH-eJa-7">
          <mxGeometry relative="1" as="geometry" />
        </mxCell>
        <mxCell id="lPlSVqDqnNSUKFsH-eJa-23" value="&lt;font style=&quot;font-size: 16px;&quot;&gt;Povezuje vrste prijevoza&amp;nbsp;&lt;/font&gt;&lt;div style=&quot;font-size: 16px;&quot;&gt;&lt;font style=&quot;font-size: 16px;&quot;&gt;(gradski, prigradski) s vozilima&amp;nbsp;&lt;/font&gt;&lt;/div&gt;&lt;div style=&quot;font-size: 16px;&quot;&gt;&lt;font style=&quot;font-size: 16px;&quot;&gt;koja se koriste za&amp;nbsp;&lt;/font&gt;&lt;/div&gt;&lt;div style=&quot;font-size: 16px;&quot;&gt;njihovo izvršavanje.&lt;/div&gt;" style="edgeLabel;html=1;align=center;verticalAlign=middle;resizable=0;points=[];fontSize=12;labelBackgroundColor=none;" vertex="1" connectable="0" parent="lPlSVqDqnNSUKFsH-eJa-21">
          <mxGeometry x="-0.0737" y="2" relative="1" as="geometry">
            <mxPoint x="2" y="-38" as="offset" />
          </mxGeometry>
        </mxCell>
        <mxCell id="lPlSVqDqnNSUKFsH-eJa-4" value="&lt;font style=&quot;font-size: 18px;&quot;&gt;Gradski i prigradski prijevoz&lt;/font&gt;" style="rounded=0;whiteSpace=wrap;html=1;labelBackgroundColor=none;" vertex="1" parent="1">
          <mxGeometry x="33" y="109" width="160" height="80" as="geometry" />
        </mxCell>
        <mxCell id="lPlSVqDqnNSUKFsH-eJa-11" style="edgeStyle=none;curved=1;rounded=0;orthogonalLoop=1;jettySize=auto;html=1;exitX=0.75;exitY=1;exitDx=0;exitDy=0;entryX=0.75;entryY=0;entryDx=0;entryDy=0;fontSize=12;startSize=8;endSize=8;labelBackgroundColor=none;fontColor=default;" edge="1" parent="1" source="lPlSVqDqnNSUKFsH-eJa-5" target="lPlSVqDqnNSUKFsH-eJa-4">
          <mxGeometry relative="1" as="geometry" />
        </mxCell>
        <mxCell id="lPlSVqDqnNSUKFsH-eJa-12" value="&lt;span style=&quot;font-size: 16px;&quot;&gt;Povezuje raspored vožnji s&amp;nbsp;&lt;/span&gt;&lt;div&gt;&lt;span style=&quot;font-size: 16px;&quot;&gt;odgovarajućim&amp;nbsp;&lt;/span&gt;&lt;/div&gt;&lt;div&gt;&lt;span style=&quot;font-size: 16px;&quot;&gt;vrstama prijevoza (gradski, prigradski)&amp;nbsp;&lt;/span&gt;&lt;/div&gt;&lt;div&gt;&lt;span style=&quot;font-size: 16px;&quot;&gt;koje se pružaju&lt;/span&gt;&lt;br&gt;&lt;/div&gt;" style="edgeLabel;html=1;align=center;verticalAlign=middle;resizable=0;points=[];fontSize=12;labelBackgroundColor=none;" vertex="1" connectable="0" parent="lPlSVqDqnNSUKFsH-eJa-11">
          <mxGeometry x="-0.1913" relative="1" as="geometry">
            <mxPoint x="132" y="27" as="offset" />
          </mxGeometry>
        </mxCell>
        <mxCell id="lPlSVqDqnNSUKFsH-eJa-5" value="&lt;font style=&quot;font-size: 21px;&quot;&gt;Vozni red&lt;/font&gt;" style="rounded=0;whiteSpace=wrap;html=1;labelBackgroundColor=none;" vertex="1" parent="1">
          <mxGeometry x="51" y="-198" width="120" height="60" as="geometry" />
        </mxCell>
        <mxCell id="lPlSVqDqnNSUKFsH-eJa-22" style="edgeStyle=none;curved=1;rounded=0;orthogonalLoop=1;jettySize=auto;html=1;exitX=1;exitY=0.75;exitDx=0;exitDy=0;entryX=0;entryY=0.75;entryDx=0;entryDy=0;fontSize=12;startSize=8;endSize=8;labelBackgroundColor=none;fontColor=default;" edge="1" parent="1" source="lPlSVqDqnNSUKFsH-eJa-7" target="lPlSVqDqnNSUKFsH-eJa-4">
          <mxGeometry relative="1" as="geometry" />
        </mxCell>
        <mxCell id="lPlSVqDqnNSUKFsH-eJa-24" value="&lt;font style=&quot;font-size: 16px;&quot;&gt;Povezuje vozila s&amp;nbsp;&lt;/font&gt;&lt;div style=&quot;font-size: 16px;&quot;&gt;&lt;font style=&quot;font-size: 16px;&quot;&gt;odgovarajućim tipovima&amp;nbsp;&lt;/font&gt;&lt;/div&gt;&lt;div style=&quot;font-size: 16px;&quot;&gt;&lt;font style=&quot;font-size: 16px;&quot;&gt;prijevoza (gradski, prigradski)&lt;/font&gt;&lt;/div&gt;" style="edgeLabel;html=1;align=center;verticalAlign=middle;resizable=0;points=[];fontSize=12;labelBackgroundColor=none;" vertex="1" connectable="0" parent="lPlSVqDqnNSUKFsH-eJa-22">
          <mxGeometry x="0.0017" y="-3" relative="1" as="geometry">
            <mxPoint x="-3" y="19" as="offset" />
          </mxGeometry>
        </mxCell>
        <mxCell id="lPlSVqDqnNSUKFsH-eJa-7" value="&lt;font style=&quot;font-size: 21px;&quot;&gt;Vozila&lt;/font&gt;&lt;span style=&quot;color: rgba(0, 0, 0, 0); font-family: monospace; font-size: 0px; text-align: start; text-wrap: nowrap;&quot;&gt;%3CmxGraphModel%3E%3Croot%3E%3CmxCell%20id%3D%220%22%2F%3E%3CmxCell%20id%3D%221%22%20parent%3D%220%22%2F%3E%3CmxCell%20id%3D%222%22%20value%3D%22%26lt%3Bfont%20style%3D%26quot%3Bfont-size%3A%2021px%3B%26quot%3B%26gt%3BRute%26lt%3B%2Ffont%26gt%3B%22%20style%3D%22rounded%3D0%3BwhiteSpace%3Dwrap%3Bhtml%3D1%3B%22%20vertex%3D%221%22%20parent%3D%221%22%3E%3CmxGeometry%20x%3D%2251%22%20y%3D%22-198%22%20width%3D%22120%22%20height%3D%2260%22%20as%3D%22geometry%22%2F%3E%3C%2FmxCell%3E%3C%2Froot%3E%3C%2FmxGraphModel%3E&lt;/span&gt;" style="rounded=0;whiteSpace=wrap;html=1;labelBackgroundColor=none;" vertex="1" parent="1">
          <mxGeometry x="-415" y="119" width="120" height="60" as="geometry" />
        </mxCell>
        <mxCell id="lPlSVqDqnNSUKFsH-eJa-14" style="edgeStyle=none;curved=1;rounded=0;orthogonalLoop=1;jettySize=auto;html=1;exitX=0;exitY=0.75;exitDx=0;exitDy=0;entryX=1;entryY=0.75;entryDx=0;entryDy=0;fontSize=12;startSize=8;endSize=8;labelBackgroundColor=none;fontColor=default;" edge="1" parent="1" source="lPlSVqDqnNSUKFsH-eJa-8" target="lPlSVqDqnNSUKFsH-eJa-4">
          <mxGeometry relative="1" as="geometry" />
        </mxCell>
        <mxCell id="lPlSVqDqnNSUKFsH-eJa-16" value="&lt;span style=&quot;font-size: 16px;&quot;&gt;Povezuje praćenje i nadzor vozila&amp;nbsp;&lt;/span&gt;&lt;div&gt;&lt;span style=&quot;font-size: 16px;&quot;&gt;s odgovarajućim vrstama prijevoza&amp;nbsp;&lt;/span&gt;&lt;/div&gt;&lt;div&gt;&lt;span style=&quot;font-size: 16px;&quot;&gt;(gradski, prigradski&lt;/span&gt;&lt;br&gt;&lt;/div&gt;" style="edgeLabel;html=1;align=center;verticalAlign=middle;resizable=0;points=[];fontSize=12;labelBackgroundColor=none;" vertex="1" connectable="0" parent="lPlSVqDqnNSUKFsH-eJa-14">
          <mxGeometry x="-0.1326" y="1" relative="1" as="geometry">
            <mxPoint x="-8" y="25" as="offset" />
          </mxGeometry>
        </mxCell>
        <mxCell id="lPlSVqDqnNSUKFsH-eJa-8" value="&lt;font style=&quot;font-size: 21px;&quot;&gt;Nadzor Vozila&lt;/font&gt;" style="rounded=0;whiteSpace=wrap;html=1;labelBackgroundColor=none;" vertex="1" parent="1">
          <mxGeometry x="473" y="119" width="120" height="60" as="geometry" />
        </mxCell>
        <mxCell id="lPlSVqDqnNSUKFsH-eJa-18" style="edgeStyle=none;curved=1;rounded=0;orthogonalLoop=1;jettySize=auto;html=1;exitX=0.75;exitY=0;exitDx=0;exitDy=0;entryX=0.75;entryY=1;entryDx=0;entryDy=0;fontSize=12;startSize=8;endSize=8;labelBackgroundColor=none;fontColor=default;" edge="1" parent="1" source="lPlSVqDqnNSUKFsH-eJa-9" target="lPlSVqDqnNSUKFsH-eJa-4">
          <mxGeometry relative="1" as="geometry" />
        </mxCell>
        <mxCell id="lPlSVqDqnNSUKFsH-eJa-20" value="&lt;font style=&quot;font-size: 17px;&quot;&gt;Povezuje putnike s&amp;nbsp;&lt;/font&gt;&lt;div style=&quot;font-size: 17px;&quot;&gt;&lt;font style=&quot;font-size: 17px;&quot;&gt;uslugama i ruterama koje&amp;nbsp;&lt;/font&gt;&lt;/div&gt;&lt;div style=&quot;font-size: 17px;&quot;&gt;&lt;font style=&quot;font-size: 17px;&quot;&gt;koriste za putovanja&lt;/font&gt;&lt;/div&gt;" style="edgeLabel;html=1;align=center;verticalAlign=middle;resizable=0;points=[];fontSize=12;labelBackgroundColor=none;" vertex="1" connectable="0" parent="lPlSVqDqnNSUKFsH-eJa-18">
          <mxGeometry x="0.2152" y="1" relative="1" as="geometry">
            <mxPoint x="82" y="19" as="offset" />
          </mxGeometry>
        </mxCell>
        <mxCell id="lPlSVqDqnNSUKFsH-eJa-9" value="&lt;span style=&quot;font-size: 21px;&quot;&gt;Putnici&lt;/span&gt;&lt;div&gt;&lt;span style=&quot;font-size: 21px;&quot;&gt;&lt;br&gt;&lt;/span&gt;&lt;/div&gt;" style="rounded=0;whiteSpace=wrap;html=1;labelBackgroundColor=none;" vertex="1" parent="1">
          <mxGeometry x="51" y="419" width="120" height="60" as="geometry" />
        </mxCell>
      </root>
    </mxGraphModel>
  </diagram>
</mxfile>
